# xmcd
#
# Track frame offsets:
# 150
# 15121
# 32696
# 46503
# 62680
# 78345
# 92974
# 108189
# 124109
# 137737
# 151425
# 164313
# 181282
# 201217
#
# Disc length: 2876 seconds
#
#
# Revision: 2
# Processed by: cddbd v1.5.1PL0 Copyright (c) Steve Scherf et al.
# Submitted via: FreeRIP 2.94 
#
DISCID=a60b3a0e
DTITLE=Varios - Barretos 2000
DYEAR=2000
DGENRE=Country
TTITLE0=Barretezão - Ataíde e Alexandre
TTITLE1=De Barretos a Nashville - Rick Renner
TTITLE2=Rei do Rodeio - Bruno e Marrone
TTITLE3=A morena do Rodeio - Cezar e Paulinho
TTITLE4=Crença de Peão -  Matogrosso e Mathias
TTITLE5=Peão Apaixonado - Daniel
TTITLE6=Touro de Rodeio - Leandro e Leonardo
TTITLE7=Aguenta Peão - Milionário e José Rico
TTITLE8=Peão, Mulher e Rodeio - Diego e Danimar
TTITLE9=Hey! Hey! Trem Bão - Gian e Giovani
TTITLE10=Rei do Gado - Orquestra da Terra
TTITLE11=Peão - Christian e Ralf
TTITLE12=Acabou - João Paulo e Daniel
TTITLE13=Cowboy de Rodeio - Nalva aguiar
EXTD=
EXTT0=
EXTT1=
EXTT2=
EXTT3=
EXTT4=
EXTT5=
EXTT6=
EXTT7=
EXTT8=
EXTT9=
EXTT10=
EXTT11=
EXTT12=
EXTT13=
PLAYORDER=
